<svg display="none"
   xmlns="http://www.w3.org/2000/svg">
   <symbol id="icon-favorite" viewBox="0 0 24 22">
      <g>
         <path d="M20.8401 3.60987C20.3294 3.09888 19.7229 2.69352 19.0555 2.41696C18.388 2.14039 17.6726 1.99805 16.9501 1.99805C16.2276 1.99805 15.5122 2.14039 14.8448 2.41696C14.1773 2.69352 13.5709 3.09888 13.0601 3.60987L12.0001 4.66987L10.9401 3.60987C9.90843 2.57818 8.50915 1.99858 7.05012 1.99858C5.59109 1.99858 4.19181 2.57818 3.16012 3.60987C2.12843 4.64156 1.54883 6.04084 1.54883 7.49987C1.54883 8.95891 2.12843 10.3582 3.16012 11.3899L4.22012 12.4499L12.0001 20.2299L19.7801 12.4499L20.8401 11.3899C21.3511 10.8791 21.7565 10.2727 22.033 9.60523C22.3096 8.93777 22.4519 8.22236 22.4519 7.49987C22.4519 6.77738 22.3096 6.06198 22.033 5.39452C21.7565 4.72706 21.3511 4.12063 20.8401 3.60987V3.60987Z"/>
      </g>
   </symbol>

   <symbol id="icon-grid" viewBox="0 0 16 16">
      <g>
         <path fill-rule="evenodd" clip-rule="evenodd" d="M0 1C0 0.447715 0.447715 0 1 0H6C6.55228 0 7 0.447715 7 1V6C7 6.55228 6.55228 7 6 7H1C0.447715 7 0 6.55228 0 6V1ZM2 2V5H5V2H2Z" fill="#272727"/>
         <path fill-rule="evenodd" clip-rule="evenodd" d="M9 1C9 0.447715 9.44772 0 10 0H15C15.5523 0 16 0.447715 16 1V6C16 6.55228 15.5523 7 15 7H10C9.44772 7 9 6.55228 9 6V1ZM11 2V5H14V2H11Z" fill="#272727"/>
         <path fill-rule="evenodd" clip-rule="evenodd" d="M9 10C9 9.44772 9.44772 9 10 9H15C15.5523 9 16 9.44772 16 10V15C16 15.5523 15.5523 16 15 16H10C9.44772 16 9 15.5523 9 15V10ZM11 11V14H14V11H11Z" fill="#272727"/>
         <path fill-rule="evenodd" clip-rule="evenodd" d="M0 10C0 9.44772 0.447715 9 1 9H6C6.55228 9 7 9.44772 7 10V15C7 15.5523 6.55228 16 6 16H1C0.447715 16 0 15.5523 0 15V10ZM2 11V14H5V11H2Z" fill="#272727"/>
      </g>
   </symbol>

   <symbol id="icon-list" viewBox="0 0 20 14">

      <g>
         <path fill-rule="evenodd" clip-rule="evenodd" d="M5 1C5 0.447715 5.44772 0 6 0H19C19.5523 0 20 0.447715 20 1C20 1.55228 19.5523 2 19 2H6C5.44772 2 5 1.55228 5 1Z" fill="#272727"/>
         <path fill-rule="evenodd" clip-rule="evenodd" d="M5 7C5 6.44772 5.44772 6 6 6H19C19.5523 6 20 6.44772 20 7C20 7.55228 19.5523 8 19 8H6C5.44772 8 5 7.55228 5 7Z" fill="#272727"/>
         <path fill-rule="evenodd" clip-rule="evenodd" d="M5 13C5 12.4477 5.44772 12 6 12H19C19.5523 12 20 12.4477 20 13C20 13.5523 19.5523 14 19 14H6C5.44772 14 5 13.5523 5 13Z" fill="#272727"/>
         <path fill-rule="evenodd" clip-rule="evenodd" d="M0 1C0 0.447715 0.447715 0 1 0H1.01C1.56228 0 2.01 0.447715 2.01 1C2.01 1.55228 1.56228 2 1.01 2H1C0.447715 2 0 1.55228 0 1Z" fill="#272727"/>
         <path fill-rule="evenodd" clip-rule="evenodd" d="M0 7C0 6.44772 0.447715 6 1 6H1.01C1.56228 6 2.01 6.44772 2.01 7C2.01 7.55228 1.56228 8 1.01 8H1C0.447715 8 0 7.55228 0 7Z" fill="#272727"/>
         <path fill-rule="evenodd" clip-rule="evenodd" d="M0 13C0 12.4477 0.447715 12 1 12H1.01C1.56228 12 2.01 12.4477 2.01 13C2.01 13.5523 1.56228 14 1.01 14H1C0.447715 14 0 13.5523 0 13Z" fill="#272727"/>
      </g>
   </symbol>
</svg>